<?xml version="1.0" encoding="UTF-8"?><svg id="Carre" xmlns="http://www.w3.org/2000/svg" viewBox="0 0 1350 1350"><defs><style>.cls-1{fill:#1a1a33;stroke-width:0px;}</style></defs><path class="cls-1" d="M64.72,869.73l3.58,10.64c87.73,260.66,331.57,435.79,606.77,435.79s519.05-175.13,606.77-435.79l3.58-10.64H64.72ZM882.26,1010.45l-181.54-124.6h368.72l-187.18,124.6ZM686.97,885.86l-21.12,68.67-447.02,147.37c-57-61.04-102.31-134.01-131.56-216.04h599.7ZM660.04,973.43l-97.3,316.36c-127.13-23.16-242.51-84.99-331.53-174.99l428.83-141.37ZM578.76,1292.58l119.58-388.8,169.46,116.31-127.42,84.82,172.11,148.32c-73.77,30.31-154.11,46.8-237.42,46.8-32.63,0-64.81-2.55-96.32-7.44ZM928.97,1246.14l-161.97-139.58,331.55-220.7h164.33c-58.54,164.16-181.1,292.3-333.9,360.28Z"/><path class="cls-1" d="M395.69,803.1c-4.28-1.63-7.61-3.74-10.01-6.32l2.12-3.5c2.27,2.4,5.33,4.35,9.18,5.86s7.89,2.26,12.13,2.26c6.15,0,10.79-1.17,13.93-3.5,3.14-2.34,4.71-5.38,4.71-9.13,0-2.89-.83-5.2-2.49-6.92-1.66-1.72-3.72-3.04-6.18-3.97-2.46-.92-5.78-1.87-9.97-2.86-4.74-1.17-8.53-2.31-11.39-3.41-2.86-1.11-5.29-2.81-7.29-5.12-2-2.31-3-5.4-3-9.27,0-3.14.83-6.01,2.49-8.63,1.66-2.61,4.2-4.69,7.61-6.23,3.42-1.54,7.67-2.31,12.78-2.31,3.57,0,7.07.52,10.52,1.57s6.43,2.46,8.95,4.24l-1.75,3.78c-2.58-1.79-5.43-3.14-8.53-4.06-3.11-.92-6.17-1.39-9.18-1.39-5.97,0-10.49,1.2-13.56,3.6-3.08,2.4-4.61,5.51-4.61,9.32,0,2.89.83,5.2,2.49,6.92,1.66,1.72,3.72,3.04,6.18,3.97,2.46.92,5.81,1.91,10.06,2.95,4.74,1.17,8.52,2.31,11.35,3.41,2.83,1.11,5.24,2.78,7.24,5.03,2,2.25,3,5.27,3,9.09,0,3.14-.85,6-2.54,8.58-1.69,2.58-4.29,4.65-7.8,6.18-3.51,1.54-7.81,2.31-12.92,2.31-4.74,0-9.24-.81-13.51-2.44Z"/><path class="cls-1" d="M511.43,800.84v4.24h-44.56v-64.58h43.18v4.24h-38.47v25.46h34.41v4.15h-34.41v26.48h39.86Z"/><path class="cls-1" d="M591.88,805.09l-15.41-21.59c-2.28.31-4.37.46-6.27.46h-18.45v21.13h-4.7v-64.58h23.16c8.12,0,14.48,1.92,19.1,5.77,4.61,3.84,6.92,9.18,6.92,16.01,0,5.11-1.31,9.39-3.92,12.87-2.62,3.48-6.35,5.92-11.21,7.33l16.14,22.6h-5.35ZM570.2,779.81c6.89,0,12.15-1.52,15.78-4.57,3.63-3.04,5.45-7.36,5.45-12.96s-1.82-9.92-5.45-12.96c-3.63-3.04-8.89-4.57-15.78-4.57h-18.45v35.06h18.45Z"/><path class="cls-1" d="M683.49,740.5l-28.78,64.58h-4.71l-28.78-64.58h5.17l26.11,58.49,26.11-58.49h4.89Z"/><path class="cls-1" d="M712.37,740.5h4.7v64.58h-4.7v-64.58Z"/><path class="cls-1" d="M768.23,801.3c-5.07-2.83-9.07-6.73-11.99-11.72-2.92-4.98-4.38-10.58-4.38-16.79s1.46-11.81,4.38-16.79c2.92-4.98,6.92-8.89,11.99-11.72,5.07-2.83,10.78-4.24,17.11-4.24,4.67,0,8.98.75,12.92,2.26,3.93,1.51,7.29,3.74,10.05,6.69l-2.95,3.04c-5.17-5.1-11.78-7.66-19.84-7.66-5.41,0-10.33,1.23-14.76,3.69-4.43,2.46-7.9,5.86-10.43,10.19-2.52,4.34-3.78,9.18-3.78,14.53s1.26,10.19,3.78,14.53c2.52,4.34,6,7.74,10.43,10.2s9.35,3.69,14.76,3.69c8,0,14.61-2.58,19.84-7.75l2.95,3.04c-2.77,2.95-6.13,5.2-10.1,6.73-3.97,1.54-8.26,2.31-12.87,2.31-6.33,0-12.04-1.41-17.11-4.24Z"/><path class="cls-1" d="M887.11,800.84v4.24h-44.56v-64.58h43.18v4.24h-38.47v25.46h34.41v4.15h-34.41v26.48h39.86Z"/><path class="cls-1" d="M926.18,803.1c-4.28-1.63-7.61-3.74-10.01-6.32l2.12-3.5c2.27,2.4,5.33,4.35,9.18,5.86s7.89,2.26,12.13,2.26c6.15,0,10.79-1.17,13.93-3.5,3.14-2.34,4.71-5.38,4.71-9.13,0-2.89-.83-5.2-2.49-6.92-1.66-1.72-3.72-3.04-6.18-3.97-2.46-.92-5.78-1.87-9.97-2.86-4.74-1.17-8.53-2.31-11.39-3.41-2.86-1.11-5.29-2.81-7.29-5.12-2-2.31-3-5.4-3-9.27,0-3.14.83-6.01,2.49-8.63,1.66-2.61,4.2-4.69,7.61-6.23,3.42-1.54,7.67-2.31,12.78-2.31,3.57,0,7.07.52,10.52,1.57s6.43,2.46,8.95,4.24l-1.75,3.78c-2.58-1.79-5.43-3.14-8.53-4.06-3.11-.92-6.17-1.39-9.18-1.39-5.97,0-10.49,1.2-13.56,3.6-3.08,2.4-4.61,5.51-4.61,9.32,0,2.89.83,5.2,2.49,6.92,1.66,1.72,3.72,3.04,6.18,3.97,2.46.92,5.81,1.91,10.06,2.95,4.74,1.17,8.52,2.31,11.35,3.41,2.83,1.11,5.24,2.78,7.24,5.03,2,2.25,3,5.27,3,9.09,0,3.14-.85,6-2.54,8.58-1.69,2.58-4.29,4.65-7.8,6.18-3.51,1.54-7.81,2.31-12.92,2.31-4.74,0-9.24-.81-13.51-2.44Z"/><g id="Tirets"><rect class="cls-1" x="64.34" y="770.31" width="277.91" height="5.38"/><rect class="cls-1" x="1006.38" y="770.31" width="279.28" height="5.38"/></g><path class="cls-1" d="M137.13,676l-24.34-34.23c-2.74.3-5.58.46-8.52.46h-28.6v33.77h-11.26v-106.48h39.85c13.59,0,24.24,3.24,31.94,9.73,7.71,6.49,11.56,15.42,11.56,26.77,0,8.32-2.11,15.34-6.31,21.07-4.21,5.73-10.22,9.86-18.03,12.4l26.01,36.51h-12.32ZM128.16,625.65c5.58-4.66,8.37-11.2,8.37-19.62s-2.79-15.24-8.37-19.85c-5.58-4.61-13.64-6.92-24.19-6.92h-28.29v53.39h28.29c10.55,0,18.61-2.33,24.19-7Z"/><path class="cls-1" d="M193.03,669.84c-8.57-4.71-15.26-11.18-20.08-19.39-4.82-8.21-7.23-17.44-7.23-27.69s2.41-19.47,7.23-27.68c4.81-8.21,11.51-14.68,20.08-19.4,8.57-4.71,18.13-7.07,28.67-7.07s20.05,2.33,28.52,7c8.47,4.67,15.14,11.13,20,19.4,4.87,8.27,7.3,17.52,7.3,27.76s-2.43,19.5-7.3,27.76c-4.87,8.27-11.54,14.73-20,19.39-8.47,4.66-17.98,7-28.52,7s-20.11-2.36-28.67-7.07ZM244.52,661.17c6.79-3.8,12.12-9.07,15.97-15.82,3.85-6.74,5.78-14.28,5.78-22.59s-1.93-15.84-5.78-22.59c-3.86-6.74-9.18-12.02-15.97-15.82-6.79-3.8-14.4-5.7-22.82-5.7s-16.05,1.9-22.89,5.7c-6.85,3.8-12.22,9.08-16.13,15.82-3.9,6.75-5.86,14.28-5.86,22.59s1.95,15.85,5.86,22.59,9.28,12.01,16.13,15.82c6.85,3.8,14.47,5.7,22.89,5.7s16.02-1.9,22.82-5.7Z"/><path class="cls-1" d="M392.53,569.52v106.48h-9.28l-68.45-86.4v86.4h-11.26v-106.48h9.28l68.6,86.4v-86.4h11.1Z"/><path class="cls-1" d="M494.75,647.55h-59.33l-12.78,28.45h-11.71l48.68-106.48h11.1l48.68,106.48h-11.87l-12.78-28.45ZM490.65,638.42l-25.56-57.2-25.56,57.2h51.11Z"/><path class="cls-1" d="M626.79,569.52v106.48h-9.28l-68.45-86.4v86.4h-11.26v-106.48h9.28l68.6,86.4v-86.4h11.1Z"/><path class="cls-1" d="M774.65,579.25c7.71,6.49,11.56,15.42,11.56,26.77s-3.85,20.26-11.56,26.7c-7.71,6.44-18.35,9.66-31.94,9.66h-28.6v33.62h-11.26v-106.48h39.85c13.59,0,24.24,3.24,31.94,9.73ZM766.59,625.57c5.58-4.61,8.37-11.13,8.37-19.55s-2.79-15.24-8.37-19.85c-5.58-4.61-13.64-6.92-24.19-6.92h-28.29v53.24h28.29c10.55,0,18.61-2.3,24.19-6.92Z"/><path class="cls-1" d="M884.02,676l-24.34-34.23c-2.74.3-5.58.46-8.52.46h-28.6v33.77h-11.26v-106.48h39.85c13.59,0,24.24,3.24,31.94,9.73,7.71,6.49,11.56,15.42,11.56,26.77,0,8.32-2.11,15.34-6.31,21.07-4.21,5.73-10.22,9.86-18.03,12.4l26.01,36.51h-12.32ZM875.04,625.65c5.58-4.66,8.37-11.2,8.37-19.62s-2.79-15.24-8.37-19.85c-5.58-4.61-13.64-6.92-24.19-6.92h-28.29v53.39h28.29c10.55,0,18.61-2.33,24.19-7Z"/><path class="cls-1" d="M997.34,666.26v9.74h-75.3v-106.48h73.02v9.73h-61.76v37.88h55.07v9.58h-55.07v39.55h64.04Z"/><path class="cls-1" d="M1031.19,673.11c-7.25-2.53-12.85-5.88-16.81-10.04l4.41-8.67c3.85,3.86,8.98,6.97,15.36,9.36,6.39,2.38,12.98,3.58,19.77,3.58,9.53,0,16.68-1.75,21.45-5.25,4.76-3.5,7.15-8.04,7.15-13.62,0-4.26-1.29-7.65-3.88-10.19-2.59-2.53-5.75-4.49-9.51-5.86-3.75-1.37-8.98-2.86-15.67-4.49-8.01-2.03-14.4-3.98-19.17-5.86-4.77-1.88-8.85-4.74-12.25-8.6-3.4-3.85-5.1-9.07-5.1-15.67,0-5.37,1.42-10.27,4.26-14.68,2.84-4.41,7.2-7.93,13.08-10.57,5.88-2.64,13.18-3.96,21.9-3.96,6.08,0,12.04.84,17.87,2.51,5.83,1.67,10.88,3.98,15.14,6.92l-3.8,8.98c-4.46-2.94-9.23-5.15-14.3-6.62-5.07-1.47-10.04-2.21-14.91-2.21-9.33,0-16.35,1.8-21.07,5.4-4.71,3.6-7.07,8.24-7.07,13.92,0,4.26,1.29,7.68,3.88,10.27,2.59,2.59,5.83,4.57,9.73,5.93,3.9,1.37,9.15,2.87,15.75,4.49,7.81,1.93,14.12,3.83,18.94,5.7,4.82,1.88,8.9,4.71,12.25,8.52s5.02,8.95,5.02,15.44c0,5.38-1.44,10.27-4.33,14.68-2.89,4.41-7.33,7.91-13.31,10.5s-13.34,3.88-22.06,3.88c-7.91,0-15.49-1.27-22.74-3.8Z"/><path class="cls-1" d="M1118.88,569.52h11.26v96.74h59.63v9.74h-70.89v-106.48Z"/><path class="cls-1" d="M1284.54,666.26v9.74h-75.3v-106.48h73.02v9.73h-61.76v37.88h55.07v9.58h-55.07v39.55h64.04Z"/><path class="cls-1" d="M1282.07,469.85C1194.3,209.06,950.34,33.85,675,33.85S155.7,209.06,67.92,469.85l-3.58,10.64h1221.31l-3.58-10.64ZM1119.07,235.3l-429.03,141.44,97.35-316.52c127.19,23.17,242.63,85.03,331.69,175.07ZM771.36,57.43l-119.64,388.99-169.54-116.36,127.48-84.86-172.2-148.39c73.81-30.33,154.19-46.83,237.54-46.83,32.65,0,64.84,2.55,96.37,7.45ZM467.71,339.7l181.63,124.66h-368.9l187.27-124.66ZM420.97,103.9l162.05,139.65-331.71,220.81H86.91c58.57-164.24,181.19-292.44,334.07-360.46ZM663.09,464.36l21.13-68.71,447.24-147.45c57.03,61.07,102.36,134.08,131.63,216.15h-600Z"/></svg>